<svg width="88" height="88" viewBox="0 0 88 88" fill="none" xmlns="http://www.w3.org/2000/svg">
<path d="M69.6667 29.3333C66.6111 29.3333 64.0139 28.2639 61.875 26.125C59.7361 23.9861 58.6667 21.3889 58.6667 18.3333C58.6667 15.2778 59.7361 12.6806 61.875 10.5417C64.0139 8.40278 66.6111 7.33333 69.6667 7.33333C72.7222 7.33333 75.3194 8.40278 77.4583 10.5417C79.5972 12.6806 80.6667 15.2778 80.6667 18.3333C80.6667 21.3889 79.5972 23.9861 77.4583 26.125C75.3194 28.2639 72.7222 29.3333 69.6667 29.3333ZM14.6667 73.3333C12.65 73.3333 10.9236 72.6153 9.48749 71.1792C8.05138 69.7431 7.33333 68.0167 7.33333 66V22C7.33333 19.9833 8.05138 18.2569 9.48749 16.8208C10.9236 15.3847 12.65 14.6667 14.6667 14.6667H51.7C51.4555 15.8889 51.3333 17.1111 51.3333 18.3333C51.3333 19.5556 51.4555 20.7778 51.7 22C52.1278 23.9556 52.8305 25.7736 53.8083 27.4542C54.7861 29.1347 55.9778 30.6167 57.3833 31.9L44 40.3333L14.6667 22V29.3333L44 47.6667L63.3417 35.5667C64.3806 35.9333 65.4194 36.2083 66.4583 36.3917C67.4972 36.575 68.5667 36.6667 69.6667 36.6667C71.6222 36.6667 73.5472 36.3611 75.4417 35.75C77.3361 35.1389 79.0778 34.2222 80.6667 33V66C80.6667 68.0167 79.9486 69.7431 78.5125 71.1792C77.0764 72.6153 75.35 73.3333 73.3333 73.3333H14.6667Z" fill="#FEF7FF"/>
</svg>
